<svg width="64" height="64" viewBox="0 0 64 64" xmlns="http://www.w3.org/2000/svg" role="img" aria-labelledby="t">
  <title id="t">Attestar icon</title>
  <defs>
    <linearGradient id="icyan" x1="0" y1="0" x2="1" y2="1">
      <stop offset="0%" stop-color="#67E8F9"/>
      <stop offset="55%" stop-color="#22D3EE"/>
      <stop offset="100%" stop-color="#0891B2"/>
    </linearGradient>
    <linearGradient id="istar" x1="0" y1="0" x2="0.6" y2="1">
      <stop offset="0%" stop-color="#FFFFFF"/>
      <stop offset="45%" stop-color="#67E8F9"/>
      <stop offset="100%" stop-color="#22D3EE"/>
    </linearGradient>
    <linearGradient id="iground" x1="0" y1="0" x2="0.7" y2="1">
      <stop offset="0%" stop-color="#0A1024"/>
      <stop offset="100%" stop-color="#05070F"/>
    </linearGradient>
    <radialGradient id="iglow">
      <stop offset="0%" stop-color="#22D3EE" stop-opacity="0.45"/>
      <stop offset="55%" stop-color="#22D3EE" stop-opacity="0.12"/>
      <stop offset="100%" stop-color="#22D3EE" stop-opacity="0"/>
    </radialGradient>
    <radialGradient id="icore">
      <stop offset="0%" stop-color="#FFFFFF" stop-opacity="0.95"/>
      <stop offset="38%" stop-color="#67E8F9" stop-opacity="0.55"/>
      <stop offset="100%" stop-color="#67E8F9" stop-opacity="0"/>
    </radialGradient>
  </defs>
  <rect width="64" height="64" rx="14" fill="url(#iground)"/>
  <g>
    <circle cx="32" cy="32" r="21" fill="url(#iglow)" opacity="0.75"/>
    <polygon points="32.0,11.0 50.2,21.5 50.2,42.5 32.0,53.0 13.8,42.5 13.8,21.5" fill="none" stroke="url(#icyan)" stroke-width="4.6" stroke-linejoin="round"/>
    <g transform="translate(32,32) rotate(45) scale(0.105)"><path d="M0,-96 Q12,-12 96,0 Q12,12 0,96 Q-12,12 -96,0 Q-12,-12 0,-96 Z" fill="#22D3EE" opacity="0.9"/></g>
    <g transform="translate(32,32) scale(0.150)"><path d="M0,-96 Q16,-16 96,0 Q16,16 0,96 Q-16,16 -96,0 Q-16,-16 0,-96 Z" fill="url(#istar)"/></g>
  </g>
</svg>
